HIERARCHY
ROOT Hips
{
 OFFSET 0.000000 0.000000 0.000000
 CHANNELS 6 Xposition Yposition Zposition Yrotation Xrotation Zrotation
 JOINT Chest
 {
  OFFSET 0.000000 9.588913 -0.003946
  CHANNELS 3 Yrotation Xrotation Zrotation
  JOINT Chest2
  {
   OFFSET 0.000000 9.541882 0.008053
   CHANNELS 3 Yrotation Xrotation Zrotation
   JOINT Chest3
   {
    OFFSET 0.000000 9.501360 0.000000
    CHANNELS 3 Yrotation Xrotation Zrotation
    JOINT Chest4
    {
     OFFSET 0.000000 9.491660 0.000000
     CHANNELS 3 Yrotation Xrotation Zrotation
     JOINT Neck
     {
      OFFSET 0.000000 14.331917 0.000000
      CHANNELS 3 Yrotation Xrotation Zrotation
      JOINT Head
      {
       OFFSET 0.000000 8.884799 0.017034
       CHANNELS 3 Yrotation Xrotation Zrotation
       End Site
       {
        OFFSET 0.000000 16.896195 0.008993
       }
      }
     }
     JOINT RightCollar
     {
      OFFSET -2.923010 9.499495 0.000000
      CHANNELS 3 Yrotation Xrotation Zrotation
      JOINT RightShoulder
      {
       OFFSET -13.795216 0.000000 0.000000
       CHANNELS 3 Yrotation Xrotation Zrotation
       JOINT RightElbow
       {
        OFFSET -30.272209 0.000000 0.000000
        CHANNELS 3 Yrotation Xrotation Zrotation
        JOINT RightWrist
        {
         OFFSET -24.478199 0.000000 0.000000
         CHANNELS 3 Yrotation Xrotation Zrotation
         End Site
         {
          OFFSET -18.090752 0.000000 0.000000
         }
        }
       }
      }
     }
     JOINT LeftCollar
     {
      OFFSET 2.923010 9.499495 0.000000
      CHANNELS 3 Yrotation Xrotation Zrotation
      JOINT LeftShoulder
      {
       OFFSET 13.795216 0.000000 0.000000
       CHANNELS 3 Yrotation Xrotation Zrotation
       JOINT LeftElbow
       {
        OFFSET 30.272209 0.000000 0.000000
        CHANNELS 3 Yrotation Xrotation Zrotation
        JOINT LeftWrist
        {
         OFFSET 24.478199 0.000000 0.000000
         CHANNELS 3 Yrotation Xrotation Zrotation
         End Site
         {
          OFFSET 18.090752 0.000000 0.000000
         }
        }
       }
      }
     }
    }
   }
  }
 }
 JOINT RightHip
 {
  OFFSET -7.826875 0.019532 0.001973
  CHANNELS 3 Yrotation Xrotation Zrotation
  JOINT RightKnee
  {
   OFFSET 0.000000 -40.546152 -0.001885
   CHANNELS 3 Yrotation Xrotation Zrotation
   JOINT RightAnkle
   {
    OFFSET 0.000000 -39.417092 -0.003189
    CHANNELS 3 Yrotation Xrotation Zrotation
    JOINT RightToe
    {
     OFFSET 0.000000 -7.579396 17.243563
     CHANNELS 3 Yrotation Xrotation Zrotation
     End Site
     {
      OFFSET 0.000000 -1.500329 6.694466
     }
    }
   }
  }
 }
 JOINT LeftHip
 {
  OFFSET 7.826875 0.019532 0.001973
  CHANNELS 3 Yrotation Xrotation Zrotation
  JOINT LeftKnee
  {
   OFFSET 0.000000 -40.546152 -0.001885
   CHANNELS 3 Yrotation Xrotation Zrotation
   JOINT LeftAnkle
   {
    OFFSET 0.000000 -39.417092 -0.003189
    CHANNELS 3 Yrotation Xrotation Zrotation
    JOINT LeftToe
    {
     OFFSET 0.000000 -7.579396 17.243563
     CHANNELS 3 Yrotation Xrotation Zrotation
     End Site
     {
      OFFSET 0.000000 -1.500329 6.694466
     }
    }
   }
  }
 }
}
MOTION
Frames: 8
Frame Time: 0.008333
-64.444482 86.511380 67.381269 -42.594616 -16.926117 0.746975 2.346655 6.095206 1.255639 1.234996 3.418497 0.721891 1.551173 4.270604 0.914296 1.234996 3.418496 0.721891 -8.315941 13.085676 -1.745268 -8.708486 -11.793959 0.054002 -6.750890 2.142410 -1.359209 -1.437382 -2.484947 86.462839 26.684051 -10.355406 8.063453 0.695323 -2.595713 2.135829 -5.644001 1.998471 -4.271084 2.975997 -2.093384 -87.727908 -3.694441 2.235905 -3.309598 3.888053 5.994772 -0.090478 -0.172299 -4.551291 -7.109115 5.837955 15.780268 -0.338910 6.408597 -8.916530 7.439388 0.135791 1.528178 0.124373 6.774691 21.583629 5.381380 9.769429 22.962455 3.600108 12.564351 -17.986530 -10.723883 -0.147663 -3.978334 -2.922099
-64.257095 86.521970 67.283658 -42.711853 -17.022919 0.809500 2.378257 6.142955 1.233423 1.260778 3.452461 0.713654 1.583418 4.313034 0.904362 1.260779 3.452460 0.713654 -8.327884 13.023625 -1.753335 -8.722467 -11.860136 0.048303 -6.770807 2.111474 -1.344960 -1.316470 -2.440258 86.578275 26.333974 -10.447538 7.896882 0.768086 -2.607607 2.098895 -5.629015 2.012584 -4.192619 3.047858 -1.973081 -87.737493 -3.508063 2.156446 -3.105063 3.917673 6.008157 -0.078389 -0.154662 -4.484406 -7.184047 5.892248 15.604800 -0.345948 6.351343 -9.121163 7.485266 0.136315 1.513899 0.136002 6.674435 21.631845 5.200249 9.866355 22.876459 3.568276 12.638942 -18.007833 -10.628086 -0.206756 -3.912689 -2.885060
-64.073382 86.530628 67.184020 -42.825493 -17.129560 0.859541 2.399738 6.185555 1.212564 1.287321 3.489194 0.708025 1.616647 4.358915 0.897711 1.287322 3.489193 0.708025 -8.337960 12.961098 -1.766979 -8.732993 -11.926938 0.036046 -6.798431 2.071336 -1.332024 -1.202352 -2.392418 86.689997 25.983095 -10.518678 7.740530 0.815652 -2.607754 2.081744 -5.612960 2.021807 -4.114764 3.120721 -1.844804 -87.740517 -3.340912 2.105142 -2.907699 3.941412 6.028130 -0.081039 -0.141309 -4.403252 -7.244182 5.931627 15.421737 -0.358021 6.299003 -9.319228 7.536957 0.136916 1.498392 0.139513 6.614780 21.687174 5.042997 9.977314 22.787389 3.557429 12.676368 -18.037464 -10.525518 -0.255844 -3.836648 -2.857724
-63.892339 86.537593 67.083661 -42.943639 -17.246661 0.902794 2.425753 6.234594 1.192953 1.313310 3.524396 0.705839 1.649211 4.402872 0.895361 1.313311 3.524396 0.705839 -8.347894 12.899503 -1.788821 -8.741414 -11.992796 0.014748 -6.836171 2.035755 -1.319474 -1.112876 -2.355908 86.789416 25.629882 -10.557072 7.604238 0.841663 -2.591279 2.087289 -5.597520 2.033143 -4.046651 3.193792 -1.716344 -87.732821 -3.191888 2.087195 -2.718873 3.959993 6.054677 -0.101675 -0.110376 -4.310431 -7.300686 5.950920 15.237145 -0.372369 6.269475 -9.511588 7.602519 0.141952 1.476705 0.135409 6.613652 21.743620 4.911078 10.079163 22.703290 3.565538 12.698764 -18.073526 -10.422928 -0.301949 -3.748063 -2.839288
-63.710578 86.542475 66.982588 -43.045119 -17.356106 0.942966 2.451571 6.283361 1.172938 1.335483 3.554781 0.706663 1.677020 4.440804 0.896722 1.335483 3.554781 0.706663 -8.361427 12.838391 -1.819695 -8.751930 -12.058055 -0.015635 -6.887139 2.013523 -1.310702 -1.047041 -2.337568 86.871430 25.277890 -10.565441 7.497142 0.852344 -2.566406 2.107762 -5.587777 2.050337 -3.994155 3.261245 -1.593636 -87.713198 -3.057979 2.091865 -2.540058 3.974064 6.091136 -0.136967 -0.066345 -4.224995 -7.363058 5.952906 15.058455 -0.383103 6.232072 -9.701996 7.676962 0.149636 1.450510 0.127134 6.649270 21.781504 4.796626 10.141116 22.625051 3.578410 12.716662 -18.113328 -10.323927 -0.337741 -3.646112 -2.820419
-63.526032 86.545398 66.881576 -43.121352 -17.446430 0.986984 2.473454 6.328216 1.150429 1.351616 3.578901 0.709316 1.697279 4.470911 0.900292 1.351616 3.578901 0.709315 -8.379203 12.774364 -1.858752 -8.765620 -12.126336 -0.054016 -6.942591 2.005890 -1.308949 -1.004946 -2.334081 86.932715 24.931499 -10.557004 7.423089 0.855480 -2.537214 2.140567 -5.582484 2.074945 -3.964274 3.325066 -1.482526 -87.678803 -2.939359 2.116320 -2.375217 3.987785 6.132967 -0.183274 -0.012043 -4.160182 -7.439899 5.942257 14.891967 -0.387456 6.167827 -9.893382 7.756516 0.156924 1.421922 0.116826 6.693111 21.792396 4.686156 10.143332 22.552719 3.580995 12.740173 -18.151825 -10.228992 -0.367358 -3.351690 -2.665146
-63.338883 86.546825 66.781009 -43.180362 -17.512405 1.037795 2.490908 6.366602 1.125464 1.361683 3.595987 0.712586 1.709943 4.492235 0.904549 1.361684 3.595987 0.712586 -8.397787 12.704947 -1.903252 -8.779211 -12.200416 -0.098185 -6.989729 2.012407 -1.312062 -0.985958 -2.340184 86.973149 24.593547 -10.541567 7.376416 0.859921 -2.512301 2.179876 -5.573739 2.107248 -3.958975 3.398429 -1.384879 -87.629847 -2.831550 2.169295 -2.222857 3.998131 6.179333 -0.237922 0.052465 -4.123629 -7.533222 5.927837 14.738836 -0.384379 6.084152 -10.084324 7.840849 0.163070 1.390200 0.105628 6.730076 21.773629 4.572445 10.091454 22.489125 3.567075 12.775379 -18.184464 -10.142314 -0.392122 -2.727687 -2.268153
-63.151075 86.547425 66.681021 -43.231394 -17.555092 1.092082 2.507718 6.398528 1.102196 1.366924 3.605468 0.715126 1.716545 4.504065 0.907814 1.366924 3.605468 0.715126 -8.415408 12.630245 -1.948618 -8.791724 -12.280223 -0.143538 -7.025172 2.032103 -1.318248 -0.982438 -2.347956 87.001601 24.269362 -10.527472 7.342268 0.872312 -2.498055 2.222816 -5.557225 2.146436 -3.969232 3.484056 -1.295346 -87.571378 -2.731909 2.245510 -2.080457 3.997642 6.227453 -0.296908 0.126178 -4.114576 -7.634775 5.915181 14.598650 -0.371026 5.975704 -10.272497 7.921977 0.167456 1.356137 0.095615 6.766199 21.728179 4.461805 10.012496 22.433707 3.539464 12.813368 -18.210123 -10.071234 -0.396618 -2.033116 -1.805227
